<?xml version="1.0" encoding="utf-8"?>
<!-- Generator: Adobe Illustrator 19.2.1, SVG Export Plug-In . SVG Version: 6.00 Build 0)  -->
<svg version="1.1" id="Layer_1" xmlns="http://www.w3.org/2000/svg" xmlns:xlink="http://www.w3.org/1999/xlink" x="0px" y="0px"
	 viewBox="0 0 64 64" style="enable-background:new 0 0 64 64;" xml:space="preserve">
<style type="text/css">
	.st0{fill:#929394;}
</style>
<path class="st0" d="M61,7H13c-1.7,0-3,1.3-3,3v10h2V10c0-0.6,0.4-1,1-1h48c0.6,0,1,0.4,1,1v26H19v2h43v5c0,0.6-0.4,1-1,1H19v2h13.2
	c-0.4,1.4-1.3,3.5-2.6,4.5c-0.5,0.3-0.7,1-0.5,1.5c0.2,0.6,0.7,1,1.4,1h13.2c0.6,0,1.2-0.4,1.4-1c0.2-0.6,0-1.2-0.5-1.5
	c-1.5-1-2.2-3.2-2.5-4.5H61c1.7,0,3-1.3,3-3V10C64,8.3,62.7,7,61,7z M42.1,51H31.9c1.4-1.7,2.1-4,2.4-5h5.6
	C40.1,47.1,40.6,49.3,42.1,51z"/>
<circle class="st0" cx="37" cy="41" r="1"/>
<g>
	<path class="st0" d="M15,21H3c-1.7,0-3,1.3-3,3v30c0,1.7,1.3,3,3,3h12c1.7,0,3-1.3,3-3V24C18,22.3,16.7,21,15,21z M16,54
		c0,0.6-0.4,1-1,1H3c-0.6,0-1-0.4-1-1v-3h14V54z M16,49H2V29h14V49z M16,27H2v-3c0-0.6,0.4-1,1-1h12c0.6,0,1,0.4,1,1V27z"/>
	<circle class="st0" cx="9" cy="53" r="1"/>
</g>
</svg>
