<?xml version="1.0" encoding="utf-8"?>
<!-- Generator: Adobe Illustrator 19.2.0, SVG Export Plug-In . SVG Version: 6.00 Build 0)  -->
<svg version="1.1" id="Layer_1" xmlns="http://www.w3.org/2000/svg" xmlns:xlink="http://www.w3.org/1999/xlink" x="0px" y="0px"
	 viewBox="0 0 18 18" style="enable-background:new 0 0 18 18;" xml:space="preserve">
<style type="text/css">
	.st0{fill:#929394;}
</style>
<g>
	<path class="st0" d="M9,0C4,0,0,4,0,9s4,9,9,9s9-4,9-9S14,0,9,0z M9,16c-3.9,0-7-3.1-7-7s3.1-7,7-7s7,3.1,7,7S12.9,16,9,16z"/>
	<polygon class="st0" points="11.8,4.8 9,7.6 6.2,4.8 4.8,6.2 7.6,9 4.8,11.8 6.2,13.2 9,10.4 11.8,13.2 13.2,11.8 10.4,9 13.2,6.2 
			"/>
</g>
</svg>
